<svg xmlns="http://www.w3.org/2000/svg" viewBox="0 0 1200 630">
  <rect width="1200" height="630" fill="#1F2125"/>
  
  <!-- Ethos E Logo -->
  <g transform="translate(480, 165) scale(0.6)">
    <path
      fill="#C1C0B6"
      fill-rule="evenodd"
      d="M255.38 255.189a254.98 254.98 0 0 1-1.935 31.411H101v62.2h136.447a251.522 251.522 0 0 1-35.932 62.2H411v-62.2H237.447a250.584 250.584 0 0 0 15.998-62.2H411v-62.2H253.521a250.604 250.604 0 0 0-15.826-62.2H411V100H202.003a251.526 251.526 0 0 1 35.692 62.2H101v62.2h152.521a255 255 0 0 1 1.859 30.789Z"
      clip-rule="evenodd"
    />
  </g>
  
  <!-- Text -->
  <text x="600" y="480" text-anchor="middle" font-family="system-ui, -apple-system, sans-serif" font-size="48" font-weight="600" fill="#FFFFFF">Sign in with Ethos</text>
  <text x="600" y="530" text-anchor="middle" font-family="system-ui, -apple-system, sans-serif" font-size="24" fill="#9CA3AF">Decentralized • Secure • Reputation-Aware</text>
</svg>
